<svg width="20" height="20" viewBox="0 0 20 20" fill="none" xmlns="http://www.w3.org/2000/svg">
<path d="M2.04469 6.61647C2.2791 6.38213 2.59699 6.25049 2.92844 6.25049C3.2599 6.25049 3.57778 6.38213 3.81219 6.61647L9.99969 12.804L16.1872 6.61647C16.4229 6.38877 16.7387 6.26278 17.0664 6.26563C17.3942 6.26848 17.7077 6.39994 17.9395 6.6317C18.1712 6.86346 18.3027 7.17697 18.3055 7.50472C18.3084 7.83247 18.1824 8.14822 17.9547 8.38397L10.8834 15.4552C10.649 15.6896 10.3311 15.8212 9.99969 15.8212C9.66824 15.8212 9.35035 15.6896 9.11594 15.4552L2.04469 8.38397C1.81036 8.14956 1.67871 7.83168 1.67871 7.50022C1.67871 7.16877 1.81036 6.85088 2.04469 6.61647Z" fill="white"/>
</svg>
