<svg width="85" height="85" viewBox="0 0 85 85" fill="none" xmlns="http://www.w3.org/2000/svg">
<path d="M40.829 1.69181C41.7485 0.760852 43.2515 0.760852 44.171 1.69181L46.1544 3.69989C46.909 4.46389 48.0857 4.6188 49.0123 4.07614L51.4479 2.64982C52.577 1.98858 54.0288 2.37758 54.676 3.5148L56.0721 5.9678C56.6033 6.90108 57.6997 7.35525 58.7352 7.07091L61.457 6.32356C62.7188 5.97709 64.0204 6.72859 64.3512 7.99457L65.0649 10.7253C65.3364 11.7643 66.2779 12.4868 67.3518 12.4801L70.1742 12.4627C71.4826 12.4546 72.5454 13.5174 72.5373 14.8258L72.5199 17.6482C72.5132 18.7221 73.2357 19.6636 74.2747 19.9351L77.0054 20.6488C78.2714 20.9796 79.0229 22.2812 78.6764 23.543L77.9291 26.2648C77.6447 27.3003 78.0989 28.3967 79.0322 28.9279L81.4852 30.324C82.6224 30.9712 83.0114 32.423 82.3502 33.5521L80.9239 35.9877C80.3812 36.9143 80.5361 38.091 81.3001 38.8456L83.3082 40.829C84.2392 41.7485 84.2392 43.2515 83.3082 44.171L81.3001 46.1544C80.5361 46.909 80.3812 48.0857 80.9239 49.0123L82.3502 51.4479C83.0114 52.577 82.6224 54.0288 81.4852 54.676L79.0322 56.0721C78.0989 56.6033 77.6447 57.6997 77.9291 58.7352L78.6764 61.457C79.0229 62.7188 78.2714 64.0204 77.0054 64.3512L74.2747 65.0649C73.2357 65.3364 72.5132 66.2779 72.5199 67.3518L72.5373 70.1742C72.5454 71.4826 71.4826 72.5454 70.1742 72.5373L67.3518 72.5199C66.2779 72.5132 65.3364 73.2357 65.0649 74.2747L64.3512 77.0054C64.0204 78.2714 62.7188 79.0229 61.457 78.6764L58.7352 77.9291C57.6997 77.6447 56.6033 78.0989 56.0721 79.0322L54.676 81.4852C54.0288 82.6224 52.577 83.0114 51.4479 82.3502L49.0123 80.9239C48.0857 80.3812 46.909 80.5361 46.1544 81.3001L44.171 83.3082C43.2515 84.2392 41.7485 84.2392 40.829 83.3082L38.8456 81.3001C38.091 80.5361 36.9143 80.3812 35.9877 80.9239L33.5521 82.3502C32.423 83.0114 30.9712 82.6224 30.324 81.4852L28.9279 79.0322C28.3967 78.0989 27.3003 77.6447 26.2648 77.9291L23.543 78.6764C22.2812 79.0229 20.9796 78.2714 20.6488 77.0054L19.9351 74.2747C19.6636 73.2357 18.7221 72.5132 17.6482 72.5199L14.8258 72.5373C13.5174 72.5454 12.4546 71.4826 12.4627 70.1742L12.4801 67.3518C12.4868 66.2779 11.7643 65.3364 10.7253 65.0649L7.99457 64.3512C6.72859 64.0204 5.97709 62.7188 6.32356 61.457L7.07091 58.7352C7.35525 57.6997 6.90108 56.6033 5.9678 56.0721L3.5148 54.676C2.37758 54.0288 1.98858 52.577 2.64982 51.4479L4.07614 49.0123C4.6188 48.0857 4.46389 46.909 3.69989 46.1544L1.69181 44.171C0.760852 43.2515 0.760852 41.7485 1.69181 40.829L3.69989 38.8456C4.46389 38.091 4.6188 36.9143 4.07614 35.9877L2.64982 33.5521C1.98858 32.423 2.37758 30.9712 3.5148 30.324L5.9678 28.9279C6.90108 28.3967 7.35525 27.3003 7.07091 26.2648L6.32356 23.543C5.97709 22.2812 6.72859 20.9796 7.99457 20.6488L10.7253 19.9351C11.7643 19.6636 12.4868 18.7221 12.4801 17.6482L12.4627 14.8258C12.4546 13.5174 13.5174 12.4546 14.8258 12.4627L17.6482 12.4801C18.7221 12.4868 19.6636 11.7643 19.9351 10.7253L20.6488 7.99457C20.9796 6.72859 22.2812 5.97709 23.543 6.32356L26.2648 7.07091C27.3003 7.35525 28.3967 6.90108 28.9279 5.9678L30.324 3.5148C30.9712 2.37758 32.423 1.98858 33.5521 2.64982L35.9877 4.07614C36.9143 4.6188 38.091 4.46389 38.8456 3.69989L40.829 1.69181Z" fill="#B6FF52"/>
<circle cx="43.5" cy="43.5" r="15.5" fill="#0C203C"/>
<path d="M40.5342 40.4951L40.5342 45.9092C40.5342 47.0181 41.7392 47.7139 42.701 47.1595L45.0488 45.8074L47.3966 44.4496C48.3584 43.8952 48.3584 42.5091 47.3966 41.9547L45.0488 40.5969L42.701 39.2448C41.7392 38.6904 40.5342 39.3806 40.5342 40.4951Z" fill="#B6FF52"/>
<path d="M18.1028 48.5289L17.3324 48.7922L19.054 53.8298L11.8828 56.2806L12.1705 57.1222L20.1121 54.4081L18.1028 48.5289Z" fill="black"/>
<path d="M10.0806 41.5479L8.66616 41.495L8.63293 42.3837L10.0474 42.4366L10.0806 41.5479ZM17.0529 41.8086L10.8693 41.5774L10.836 42.4661L17.0197 42.6973L17.0529 41.8086Z" fill="black"/>
<path d="M19.5375 33.368C20.1433 31.8834 20.0103 30.5845 18.9317 30.1444C18.0038 29.7659 17.3166 30.2566 16.641 31.415L15.8712 32.7379C15.344 33.6322 15.0122 33.8486 14.4207 33.6072C13.7364 33.328 13.65 32.711 14.1421 31.5048C14.7384 30.0434 15.3868 29.7804 16.2451 30.1306L16.3031 30.1542L16.6391 29.3308L16.6159 29.3213C15.2705 28.7724 14.1393 29.5555 13.4673 31.2024C12.8237 32.7797 13.0689 34.0026 14.0779 34.4143C15.0289 34.8024 15.7046 34.3069 16.2697 33.3199L17.1147 31.8788C17.6535 30.9893 17.9973 30.7102 18.6004 30.9563C19.2615 31.226 19.3833 31.7898 18.858 33.0772C18.2854 34.4805 17.7172 34.9116 16.7545 34.5188L16.685 34.4905L16.349 35.3139L16.3722 35.3234C17.6944 35.8628 18.8183 35.1309 19.5375 33.368Z" fill="black"/>
<path d="M26.6899 23.2936L26.1153 22.7167L25.3165 23.5123C24.6775 24.1488 24.2078 24.2807 23.5979 23.6683L21.1228 21.1832L22.8623 19.4506L22.3231 18.9092L20.5836 20.6418L19.5405 19.5945L18.9015 20.231L19.9446 21.2782L19.1635 22.0561L19.7027 22.5975L20.4838 21.8196L22.9235 24.2692C23.9489 25.2987 24.8704 25.1057 25.7402 24.2395L26.6899 23.2936Z" fill="black"/>
<path d="M33.7968 19.9943C35.4105 19.3746 36.2844 18.0862 35.8218 16.8818L35.7904 16.7999L34.9602 17.1188L34.9916 17.2007C35.315 18.0426 34.8766 18.7879 33.5202 19.3089C31.9883 19.8972 31.0209 19.3697 30.4756 18.0897L35.5623 16.1361C35.539 15.9706 35.495 15.7863 35.4142 15.5758C34.754 13.8568 33.1723 13.3371 31.4767 13.9883C29.6175 14.7024 28.9287 16.4027 29.6023 18.1567C30.3074 19.9926 31.9375 20.7084 33.7968 19.9943ZM31.73 14.6827C33.0865 14.1618 34.1053 14.5085 34.5723 15.7247C34.5948 15.7831 34.6172 15.8416 34.6397 15.9001L30.278 17.5752C29.8514 16.2898 30.2332 15.2576 31.73 14.6827Z" fill="black"/>
<path d="M43.4347 17.1039L43.7336 14.125C43.8924 12.5421 44.7689 11.7111 46.2646 11.8612C47.673 12.0025 48.2099 12.7991 48.0823 14.0704L47.7347 17.5353L48.6196 17.6241L48.9798 14.0346C49.1261 12.5763 48.3899 11.2561 46.6574 11.0823C45.1244 10.9285 44.1506 11.8505 43.8337 12.8762L43.7714 12.8699L43.9652 10.938L43.1676 10.858L42.5498 17.0151L43.4347 17.1039Z" fill="black"/>
<path d="M60.0672 24.1522L64.3116 20.4239L65.3491 19.4792L65.3905 19.5263L65.0214 21.251L63.6715 28.2555L64.3163 28.9896L70.6217 23.4509L70.0348 22.7827L65.7339 26.5606L64.7152 27.4887L64.6656 27.4323L65.0501 25.7441L66.4305 18.6794L65.7857 17.9453L59.4802 23.484L60.0672 24.1522Z" fill="black"/>
<path d="M67.1044 36.5283C67.5816 38.5006 69.1995 39.4881 71.0258 39.0463C72.852 38.6044 73.8395 36.9865 73.3623 35.0142C72.8881 33.054 71.2702 32.0664 69.4439 32.5083C67.6177 32.9502 66.6301 34.5681 67.1044 36.5283ZM67.8836 36.3397C67.483 34.6839 68.1891 33.714 69.6501 33.3606C71.0989 33.01 72.1825 33.5469 72.5831 35.2027C72.9838 36.8585 72.2684 37.8435 70.8196 38.194C69.3586 38.5475 68.2842 37.9955 67.8836 36.3397Z" fill="black"/>
<path d="M67.581 47.7741L71.0212 50.4549L72.211 51.3044L72.1938 51.3646L70.7346 51.4543L66.4034 51.8801L66.096 52.9517L71.4916 56.5842L71.7437 55.7052L68.1724 53.2996L67.0031 52.6515L67.0238 52.5793L68.4657 52.5497L72.7763 52.105L73.0906 51.0093L69.6744 48.3354L68.4553 47.5427L68.476 47.4705L69.8266 47.5321L74.1266 47.3971L74.3787 46.5181L67.8849 46.7145L67.581 47.7741Z" fill="black"/>
<circle cx="47.6486" cy="70.335" r="1.5" transform="rotate(-6 47.6486 70.335)" fill="#0C203C"/>
</svg>
