<svg width="13" height="13" viewBox="0 0 13 13" fill="none" xmlns="http://www.w3.org/2000/svg">
<path d="M12.2933 5.64661L1.97332 0.486608C1.8341 0.422105 1.68096 0.393448 1.52783 0.403245C1.37471 0.413041 1.22646 0.460981 1.09659 0.542701C0.966727 0.62442 0.859361 0.737323 0.78427 0.871132C0.709179 1.00494 0.668748 1.15541 0.666657 1.30883V11.6244C0.665357 11.7819 0.704706 11.937 0.780901 12.0749C0.857096 12.2127 0.96756 12.3286 1.10162 12.4112C1.23567 12.4939 1.38879 12.5406 1.54616 12.5468C1.70354 12.553 1.85985 12.5185 1.99999 12.4466L12.2933 7.28661C12.4458 7.21007 12.574 7.09264 12.6636 6.94744C12.7531 6.80224 12.8006 6.63499 12.8006 6.46439C12.8006 6.29378 12.7531 6.12653 12.6636 5.98133C12.574 5.83613 12.4458 5.7187 12.2933 5.64216V5.64661Z" fill="white"/>
</svg>
