<svg width="16" height="17" viewBox="0 0 16 17" fill="none" xmlns="http://www.w3.org/2000/svg">
<path d="M12 11.2535C11.4936 11.2535 11.0368 11.4503 10.6904 11.7671L5.94 8.99666C5.9768 8.84626 6 8.68946 6 8.52946C6 8.36946 5.9768 8.21346 5.94 8.06306L10.64 5.31986C11.008 5.66657 11.4944 5.85972 12 5.85986C13.1032 5.85986 14 4.96306 14 3.85986C14 2.75666 13.1032 1.85986 12 1.85986C10.8968 1.85986 10 2.75666 10 3.85986C10 4.01986 10.0232 4.17666 10.06 4.32626L5.36 7.06946C4.99181 6.7231 4.5055 6.53001 4 6.52946C2.8968 6.52946 2 7.42626 2 8.52946C2 9.63266 2.8968 10.5295 4 10.5295C4.50558 10.5293 4.99203 10.3362 5.36 9.98946L10.1104 12.7599C10.0754 12.9028 10.0574 13.0495 10.0568 13.1967C10.057 13.5808 10.171 13.9562 10.3845 14.2755C10.598 14.5948 10.9014 14.8436 11.2562 14.9906C11.6111 15.1375 12.0016 15.1759 12.3783 15.1009C12.7551 15.0259 13.1011 14.8409 13.3727 14.5693C13.6443 14.2977 13.8293 13.9517 13.9042 13.575C13.9792 13.1983 13.9408 12.8078 13.7939 12.4529C13.647 12.098 13.3981 11.7946 13.0788 11.5812C12.7595 11.3677 12.3841 11.2536 12 11.2535Z" fill="white"/>
</svg>
